<svg xmlns="http://www.w3.org/2000/svg" class="logo disneyLogo" viewBox="0 0 204.74 108" aria-labelledby="disney-logo-title" role="img"><title id="disney-logo-title">Disney Logo</title><path class="cls-1" d="M85.86,41.2s0.48-.72.88-1.27A22.83,22.83,0,0,1,89.8,36.7l0.67-.56s-0.56.06-.88,0.12a6.76,6.76,0,0,0-2.42,1.36c-0.92.78-1.92,2.06-1.47,3.19,0.07,0.16.17,0.38,0.17,0.38M91,42.56A9.65,9.65,0,0,0,95,41.35c1.24-.69,3.06-2,2.87-3.63a1.34,1.34,0,0,0-.82-1.08,1.86,1.86,0,0,0-1.54,0,4.68,4.68,0,0,0-1.23.52,18.69,18.69,0,0,0-4.53,4c-0.25.33-.51,0.7-0.71,1a0.86,0.86,0,0,0-.21.34,6.4,6.4,0,0,0,2.1.11m-3.69,2.71a6.47,6.47,0,0,0-.47.81,1.6,1.6,0,0,1-.36.41,0.74,0.74,0,0,1-1.06,0,2.59,2.59,0,0,1-.83-1.83,5.5,5.5,0,0,0,0-.87,5.66,5.66,0,0,0-.74-1.26,5,5,0,0,1-.51-1.84,6.13,6.13,0,0,1,1.93-4.41,12.74,12.74,0,0,1,4.29-2.93A8.4,8.4,0,0,1,95,32.82,4.2,4.2,0,0,1,96.72,34a1.22,1.22,0,0,0,.23.27,1.72,1.72,0,0,0,.43.1,4.29,4.29,0,0,1,1.64.78A3.14,3.14,0,0,1,100.17,37a5.07,5.07,0,0,1-1.57,4.26,15.58,15.58,0,0,1-5.65,3.88,9.05,9.05,0,0,1-3.59.63c-0.34,0-.69-0.12-1-0.14a4.75,4.75,0,0,1-.86-0.22,0.33,0.33,0,0,0-.21-0.1m2,3.41,0.26,0.08a2.29,2.29,0,0,1,1.29,1.8A54.41,54.41,0,0,1,91.49,58c0.05,1.19.08,2.36,0.13,3.54a14.1,14.1,0,0,1-.09,3.25,1.53,1.53,0,0,1-.62.93,2.83,2.83,0,0,1-1.67.16,2.06,2.06,0,0,1-1.67-2.09,56.11,56.11,0,0,1,0-10.16,22.05,22.05,0,0,1,.73-4.07,1.08,1.08,0,0,1,.89-0.91m-35,4s-1.68.12-2.84,0.25a31.4,31.4,0,0,0-5.83,1.21c-0.48.17-1.45,0.58-1.54,1.07a1.65,1.65,0,0,0,.58,1.32c0.2,0.24,1.36,1.35,1.68,1.62a29.12,29.12,0,0,0,6.13,3.72c0.69,0.29,1.85.7,1.85,0.7s-0.09-3.28-.07-6.5c0-1.7,0-3.39,0-3.39M85.07,54a14.19,14.19,0,0,1-.17,2.76,12.83,12.83,0,0,1-.52,1.82,20.68,20.68,0,0,1-.93,1.87,15.46,15.46,0,0,1-2.64,3.24c-2.89,2.5-7.37,3.93-11.22,4.4a28.62,28.62,0,0,1-8.37-.24c-1-.17-2.37-0.5-2.37-0.5s0,0.57,0,1a4,4,0,0,1-.24.81,1.29,1.29,0,0,1-1,.72,3,3,0,0,1-1.73-.08,2.48,2.48,0,0,1-1.35-2.14c-0.12-.76-0.25-2.08-0.25-2.08L53,65a31.25,31.25,0,0,1-4.68-2.87c-0.39-.29-2.05-1.68-2.42-2a13.73,13.73,0,0,1-2.66-3.2A3.06,3.06,0,0,1,43,54c0.58-1.44,2.64-2.52,4.05-3.14a33.65,33.65,0,0,1,5.6-1.71c0.63-.09,1.61-0.27,1.67-0.31l0.06-.06s0.08-1.47.07-2,0.38-3.88.51-4.59a8.38,8.38,0,0,1,.66-2.26,0.59,0.59,0,0,1,.82-0.07c1.54,1,2,4.27,2.12,6,0.07,1,.1,2.57.1,2.57s1.76-.05,2.85,0a25.68,25.68,0,0,1,3.31.37,23.29,23.29,0,0,1,5.7,1.61,5.8,5.8,0,0,1,2.89,2.92,3,3,0,0,1-.24,2.77,3.87,3.87,0,0,1-3,2,4.92,4.92,0,0,1-2.1-.47A0.37,0.37,0,0,1,68,57a11.88,11.88,0,0,1,1-.58,2.39,2.39,0,0,0,.48-0.34,1.21,1.21,0,0,0,.55-0.91,1.32,1.32,0,0,0-1-.91,35.71,35.71,0,0,0-8.47-1.68c-0.81,0-2-.09-2-0.09l0.24,11.39s0.95,0.18,1.7.3c0.43,0.07,2.25.23,2.73,0.24,3.68,0.1,7.79-.23,11.17-1.83a11.65,11.65,0,0,0,3.87-2.74A8,8,0,0,0,80.28,54c-0.21-2.43-1.92-5.31-3.28-7.07-3.61-4.64-9.79-8.46-15.23-10.69A48.53,48.53,0,0,0,44.83,32.4a28,28,0,0,0-6.51.48c-0.24.07-.48,0.15-0.7,0.2a1.91,1.91,0,0,0-.53.22L37,33.38l0.2,0.1c0.18,0.08.92,0.12,1.31,0.19a1.26,1.26,0,0,1,.85.5,0.5,0.5,0,0,1,0,.63c-0.38.46-1.81,0.38-2.44,0.28a1.85,1.85,0,0,1-1.62-.87,2.66,2.66,0,0,1,.49-1.94A4.67,4.67,0,0,1,38.92,30a31.87,31.87,0,0,1,6.6-1,38.54,38.54,0,0,1,12.83,1.9,61.11,61.11,0,0,1,8,3.1,62.62,62.62,0,0,1,5.81,3.27c0.47,0.31,3.21,2.32,3.64,2.68,0.89,0.73,2.05,1.77,2.89,2.6a26.88,26.88,0,0,1,4.64,6c0.24,0.47.42,0.93,0.73,1.48a13,13,0,0,1,.63,1.63c0.07,0.32.18,0.79,0.2,0.81A11.65,11.65,0,0,1,85.07,54Zm19,0.83,0.18,0a14.06,14.06,0,0,1,3.68.88,3.8,3.8,0,0,1,2,1.87,5.31,5.31,0,0,1-2.55,7.45A10,10,0,0,1,104,66a11.9,11.9,0,0,1-6.31-1.13,7.57,7.57,0,0,1-3.2-2.72,2.71,2.71,0,0,1,.13-2.91c1-1.36,3.11-1.65,4.71-1.6a19.55,19.55,0,0,1,4.57.83,8.8,8.8,0,0,1,1.71.79,0.57,0.57,0,0,1,.17.56c-0.26.81-2.23,1.24-2.8,1.32-1.52.23-2.31-.34-4-1a5.92,5.92,0,0,0-1.44-.39,1.56,1.56,0,0,0-1.88,1,1.19,1.19,0,0,0,.84,1,6.33,6.33,0,0,0,2.59.55c2.69,0,5.72-.4,7.92-2a1.23,1.23,0,0,0,.6-0.93,0.83,0.83,0,0,0-.21-0.52H107.3a1,1,0,0,1-.2-0.24,3.49,3.49,0,0,0-.92-0.52,22.82,22.82,0,0,0-5.64-1c-1.48-.13-3.81-0.32-4.37-0.4a6.56,6.56,0,0,1-1.7-.42,2.12,2.12,0,0,1-1.14-1.29A4,4,0,0,1,94,51.88c1.47-2.12,4.92-2.92,7.49-3.24s6.52-.31,9,1a0.68,0.68,0,0,1,.49.79,2,2,0,0,1-1.42,1.46,15.69,15.69,0,0,1-2.88.36c-3,.17-6.52.08-9.33,0.85a1.94,1.94,0,0,0-.72.3c-0.44.48,0.82,0.61,1.09,0.67l0.18,0L104,54.84m9.21,11c-1.19-.44-1.46-2.36-1.52-3.33A30.35,30.35,0,0,1,113.44,52c0.3-.85.74-2.23,1.69-2.15a2.18,2.18,0,0,1,1.48,1.08c0.93,1.32,2.16,3.1,3,4.34,0.91,1.39,1.78,2.8,2.64,4.06a1.87,1.87,0,0,0,.32.4c0.15,0.13.3,0.13,0.36,0s0-1.65-.07-2c-0.07-.51-0.1-0.92-0.15-1.37a38.36,38.36,0,0,0-.88-4.3c-0.36-1.37-.79-2.78-1.11-4.1a5.46,5.46,0,0,1-.19-1.27,0.68,0.68,0,0,1,1-.69c1.21,0.43,2.82,3.06,3.28,4,0.16,0.31.79,1.88,0.93,2.32a19.36,19.36,0,0,1,.94,4.58,12.82,12.82,0,0,1-.65,5.5,6,6,0,0,1-1.18,1.75,2.73,2.73,0,0,1-2.9.58c-1-.57-2.64-3.41-2.92-3.89-1-1.66-2.59-4.91-2.84-5.27a0.46,0.46,0,0,0-.25-0.2c-0.1,0-.13.17-0.16,0.3-0.16.94-.28,5.37-0.28,5.49a22.88,22.88,0,0,1-.28,3.47,1.63,1.63,0,0,1-.82,1.31,1.33,1.33,0,0,1-1.14-.07m16.43-.28a5.06,5.06,0,0,1-.49-0.48,8.4,8.4,0,0,1-.54-0.87c-0.07-.17-0.13-0.29-0.19-0.44a5.32,5.32,0,0,1-.16-3.08,13.65,13.65,0,0,1,.91-2.44,0.87,0.87,0,0,0,.06-0.22c0-.19-0.29-1.47-0.3-1.88A1.2,1.2,0,0,1,130.24,55a0.85,0.85,0,0,0,.18,0,1.92,1.92,0,0,0,.71-1.2L131.77,52a15.73,15.73,0,0,1-1.58-.45,2.25,2.25,0,0,1-1.36-1.09,0.77,0.77,0,0,1,.58-1.24c0.25-.08,2.25-0.47,2.88-0.56l2.28-.31c0.65-.08,3.64-0.43,4.59-0.4a3.75,3.75,0,0,1,3.24,1.86c0.45,0.65.77,1.43,0.08,1.85-1.06.64-4.48,0.69-5.11,0.7-1,0-2.38,0-2.38,0l-0.7,2.33,3.83,0a4.94,4.94,0,0,1,.86.06,1.32,1.32,0,0,1,1,1.48c0,0.91-.13,1.33-0.86,1.45-0.38.06-4.59,0.08-5.16,0.15l-0.73.1s-0.3.79-.56,1.6-0.5,1.69-.5,1.69h0.39a4.66,4.66,0,0,0,.83-0.08c1.28-.23,3.19-0.52,4.76-0.76,0.84-.13,1.27-0.19,1.71.37a2.43,2.43,0,0,1,.61,1.5,1.73,1.73,0,0,1-.93,1.33,15.58,15.58,0,0,1-6.6,2.87,4.26,4.26,0,0,1-2.07-.22,3.56,3.56,0,0,1-.75-0.35Zm26.62-11.7a22.83,22.83,0,0,0-3.16,3.72c-0.89,1.28-1.73,2.74-2.54,3.87a10.07,10.07,0,0,0-.68,1.2,2.78,2.78,0,0,0,1.1,0A9.16,9.16,0,0,0,154.55,61a7.48,7.48,0,0,0,2.56-4,4.31,4.31,0,0,0-.25-3,0.4,0.4,0,0,0-.57-0.07m-8.62,13.31s-0.35,1-.6,1.8c-0.43,1.37-1.39,5-1.61,6.19-0.33,1.7-1.28,6.14-1.33,6.24a0.58,0.58,0,0,1-.27.27,0.83,0.83,0,0,1-1-.1,4.52,4.52,0,0,1-1.62-1.26c-0.92-1.2-.7-3.47-0.52-4.8a41.8,41.8,0,0,1,3-11.33,0.16,0.16,0,0,0,0-.17,9.33,9.33,0,0,1-.85-3.74c0-3.63,2.09-7.22,4.43-10.1,0.18-.22,1.32-1.59,1.85-1.57s0.61,0.64.53,1.14c-0.26,1.68-1.44,3.38-2.25,4.8a14.06,14.06,0,0,0-1.55,3.68,11.48,11.48,0,0,0-.24,1.42c0,0.39.1,0.88,0.1,0.88s1.47-2.07,2.45-3.34c0.53-.7.91-1.16,1.35-1.66s2.18-2.3,2.68-2.77a9.56,9.56,0,0,1,2.64-2,2.31,2.31,0,0,1,2.58,0c1.38,0.91,2,2.83,2.14,4.39a10.45,10.45,0,0,1-1,5.56,11.52,11.52,0,0,1-4.13,4.48,11,11,0,0,1-6.16,2l-0.62,0"></path></svg>
