<svg xmlns="http://www.w3.org/2000/svg" class="waltDisneyLogo primaryLogo fadein" viewBox="0 0 603.7 311.2" aria-labelledby="waltdisney-logo-title" role="img"><title id="waltdisney-logo-title">The Walt Disney Company Logo</title><g><path class="st0" d="M124.3,263.9c0-20.3,11.4-31.3,26.6-31.3c14.1,0,20.8,7.8,23.5,18.8l-9.8,2.8c-2.3-8-5.8-12.1-13.8-12.1 c-10.2,0-16.2,7.9-16.2,21.7c0,14.4,6.1,22.4,16.4,22.4c7.9,0,12.3-3.9,14.6-13l9.7,2.2c-2.9,12-10.4,20.2-24.4,20.2 C135.4,295.5,124.3,284.8,124.3,263.9z"></path><path class="st0" d="M181,272.6c0-16.1,10.6-22.6,21.2-22.6c10.6,0,21.2,6.6,21.2,22.6c0,15.9-10.7,22.6-21.2,22.6 C191.6,295.3,181,288.5,181,272.6z M213.2,272.6c0-8.1-3.4-14-11.1-14c-7.3,0-11.1,5.2-11.1,14c0,8.3,3.4,14.2,11.1,14.2 C209.5,286.8,213.2,281.6,213.2,272.6z"></path><path class="st0" d="M230.5,294.4v-43.5h10.1v6c3.4-3.7,8.3-6.8,14.9-6.8c7.3,0,10.2,2.9,11.9,7.1c3.4-3.8,8.6-7.1,15.2-7.1 c8.9,0,12.7,5.3,12.7,13.1v31.2h-10.1v-28.7c0-4.8-1.4-7-6.1-7c-4.1,0-7.4,2.3-11.1,5.7v30.1h-10.1v-28.7c0-4.8-1.4-7-6.1-7 c-4,0-7.4,2.3-11.1,5.7v30.1H230.5z"></path><path class="st0" d="M304.6,310.7v-59.9h10.1v5.7c2.9-3.4,7.4-6.6,13.8-6.6c9.9,0,17.2,7.5,17.2,22.5c0,15.1-7.5,22.4-18.6,22.4 c-4.7,0-9.3-1.9-12.4-5.5v21.2H304.6z M335.6,272.6c0-9.2-3.9-14-10.4-14c-4.2,0-8.2,2.6-10.6,5.5v17.4c2.7,3.5,6.6,5.4,10.2,5.4 C332.5,287,335.6,282.3,335.6,272.6z"></path><path class="st0" d="M350.1,283.9c0-9.4,8-15.7,28.3-18v-1.3c0-4.3-2.3-6.2-7.1-6.2c-6.1,0-11,2.9-14.7,5.9l-4.9-6.3 c4.7-4.3,12-7.9,21-7.9c11.6,0,15.7,5.6,15.7,15.7v17.9c0,5.2,0.3,8.4,1.2,10.6h-10.2c-0.6-1.8-1-3.1-1-5.6 c-4.4,4.5-9.6,6.2-16.1,6.2C355.4,295,350.1,291.1,350.1,283.9z M378.5,282.2v-9.6c-12,1.6-18.4,4.6-18.4,9.3 c0,3.4,2.4,5.2,6.1,5.2C371.3,287.2,375.3,285.3,378.5,282.2z"></path><path class="st0" d="M397.5,294.4v-43.5h10.1v7c3.3-3.8,8.4-7.8,15.6-7.8c7.9,0,12.9,4.1,12.9,12.7v31.6h-10.1v-28.8 c0-4.8-2-7.2-6.6-7.2c-4.4,0-8.1,2.2-11.8,5.7v30.3H397.5z"></path><path class="st0" d="M438.4,309.9l2.3-8.1c1.2,0.3,3.9,0.9,7.4,0.9c3.6,0,5.5-1.4,6.9-4.9l1.2-3.2l-16.7-43.7H450l11.2,31.7h0.2 l11.1-31.7h10L464,299.1c-2.9,7.6-6.6,12.1-15.2,12.1C443.6,311.2,440.5,310.5,438.4,309.9z"></path></g><g><path class="st0" d="M251.3,60.6V9.5h-18.7V0h47.6v9.5h-18.7v51.1H251.3z"></path><path class="st0" d="M286.2,60.6V0h10.2v23c2.8-2.9,8-6.7,15.9-6.7c7.6,0,12.5,4.5,12.5,13.1v31.2h-10.2V31.9c0-4.8-2-7-6.5-7 c-4.4,0-8.1,2.3-11.8,5.7v30.1H286.2z"></path><path class="st0" d="M331.7,38.9c0-16.5,11.7-22.6,20.7-22.6c9.8,0,19.1,5.8,19.1,23.5v2.4h-29.7c0.4,7.9,5.2,11.3,11.6,11.3 c5.7,0,8.9-1.9,12.2-5.1l5.3,5.2c-4.5,5-10.5,7.9-18.3,7.9C341.7,61.5,331.7,54.9,331.7,38.9z M362.2,34.7 c-0.6-6.6-3.9-10.2-9.9-10.2c-4.9,0-9.4,2.8-10.4,10.2H362.2z"></path></g><path class="st0" d="M373.3,127.3c0,0,1.5-2.3,2.8-4c2.3-3.1,6.4-7.4,9.5-10.1c1-0.8,2.1-1.7,2.1-1.7s-1.8,0.2-2.8,0.4 c-2.4,0.5-5.8,2.8-7.6,4.3c-2.9,2.4-6,6.4-4.6,10C372.9,126.6,373.3,127.3,373.3,127.3 M389.2,131.6c4.5-0.3,8.8-1.6,12.7-3.8 c3.9-2.2,9.6-6.4,9-11.3c-0.2-1.6-1.2-2.8-2.6-3.4c-1.7-0.7-2.6-0.6-4.8,0c-1.6,0.5-2.3,0.8-3.8,1.6c-4.4,2.6-10.7,8.1-14.1,12.5 c-0.8,1-1.6,2.2-2.2,3c-0.4,0.5-0.7,0.9-0.7,1.1C382.7,131.7,387.4,131.7,389.2,131.6 M377.7,140c-0.5,0.5-1,1.7-1.5,2.5 c-0.3,0.5-0.8,1.1-1.1,1.3c-1.2,0.9-2.2,0.9-3.3-0.1c-1.6-1.4-2.5-3.6-2.6-5.7c0-0.9,0.1-1.9,0-2.7c-0.3-1.3-1.6-2.7-2.3-3.9 c-0.8-1.5-1.5-4.1-1.6-5.7c-0.3-5.2,2.5-10,6-13.8c3.6-3.8,8.3-7,13.4-9.2c4.8-2,11.9-3.4,17.2-1.6c1.7,0.6,4.1,2.1,5.3,3.6 c0.3,0.3,0.5,0.7,0.7,0.8c0.2,0.1,0.8,0.2,1.3,0.3c1.7,0.3,4.1,1.6,5.1,2.4c2,1.7,3.1,3.4,3.6,5.8c1,4.8-1.7,10.1-4.9,13.3 c-5.4,5.5-10.7,9.4-17.7,12.1c-3,1.2-7.8,2.3-11.2,2c-1.1-0.1-2.2-0.4-3.2-0.5c-0.5,0-2.5-0.5-2.7-0.7 C378,140.1,377.7,139.9,377.7,140 M212.8,154.2c2.9-0.2,4.6-0.3,6.9-1.3c1.2-0.5,2.7-1.7,2-3.2c-0.4-0.9-1.9-1.2-2.8-1.1 c-3,0.2-5.2,2.4-6.2,5.4C212.6,154.1,212.6,154.2,212.8,154.2 M225.3,146.8c1.7,2.1,2.4,4.6,2.6,7.3c0.2,2.7-0.7,5.3-2.2,7.4 c-2.6,3.5-6.9,5.3-11.3,5.6c-0.6,0-4.1,0.1-5.1-0.1c-0.2-0.1-0.3-0.1-0.4-0.1c-0.1,0-0.7,2.5-0.8,3.3c-0.4,3-0.9,5.1-1.2,7.5 c-0.3,1.9-0.5,3.9-0.7,5.9c-1,11.7-0.6,17.5,0.3,28.9c0.1,0.7,0.1,1.5,0,2c-0.3,1.4-1.1,2.3-2.4,2.7c-4,1.1-7.9-2.9-9.9-6.1 c-4.6-7.5-3.1-22.7-1.8-30.2c0.6-3.1,2-10,2.9-12.5c0.5-1.3,1.4-4,1.3-4.1c-0.1-0.1-2.2-0.9-4.1-1.7c-0.7-0.3-3.2-1.5-4.2-2.2 c-2.2-1.3-3.6-2.5-5.1-4.1c-0.5-0.5-2-2.8-2.2-3.3c-1.2-2.7-1.3-5.1-0.2-8c0.3-0.7,1.8-3.9,2.8-3.8c1.4,0.1,1.1,2.5,1.5,3.7 c0.1,0.4,0.5,1.1,0.8,1.5c2,2.3,8.7,4.9,11.4,5.8c0.4,0.1,4.7,1.4,5.3,1.1c0.2-0.1,1-1.5,1.5-2.4c0.3-0.5,0.6-0.8,0.9-1.2 c2.6-2.8,6.4-5.4,10.3-6.2c1.7-0.3,5-0.1,6.6,0.9C222.5,144.4,223.8,144.9,225.3,146.8 M185,179.9c0.1,0,0.3,0.1,0.5,0.1 c2,0.9,2,4.3,1.5,6c-1.3,4.3-5.4,8.8-8.7,11c-1.9,1.3-6,3.2-8.8,3.7c-4.5,0.9-8.4-0.3-10.8-4c-2.2-3.3-3.1-7.3-3.3-11.1 c-0.5-11,3-27,7.2-36.1c0.6-1.2,3.4-6.9,6-7.9c2.6-0.9,3.7,2.1,4,4.4c0.3,2.9-0.6,6.8-1.3,10c-1.3,5.5-3.2,14.1-3.6,16.6 c-0.5,2.6-1.6,8.2-1.2,11c0.2,1.5,0.5,2.3,1.6,2.2c0.5-0.1,7.9-3.4,11.9-4.9C181.4,180.4,183.3,179.8,185,179.9 M130.6,174.9 c0,0,0.8,0,1.7,0c2.7,0,7.4-0.5,7.4-0.5s-0.5-4.1-0.9-6.6c-0.3-1.7-0.5-2.8-0.9-4.1c-0.2-0.6-0.6-2.4-1-3c-0.1-0.1-0.2-0.3-0.2-0.3 s-2.2,4.3-3.5,7.3c-1,2.4-1.5,4.1-2.2,5.6c-0.2,0.3-0.4,0.8-0.4,1.2C130.6,174.6,130.6,174.9,130.6,174.9 M115.9,175.3 c0,0,1.3-3,2.3-5.2c1.1-2.4,6.5-13.3,8.8-16.4c2.5-3.4,7.2-10,7.3-10.2c0.1-0.7,0.3-2,0.9-3c0.5-0.8,1.8-1.1,3-1.2 c1.4-0.1,2.8,0.9,3.4,2.1c1.2,2.2,3.2,8.3,3.7,9.8c2.4,8.2,5,23.5,5.8,31.3c0.2,2.1,0.9,12.8,1,15.2c0,1.7,0,4.5-1,5.9 c-0.4,0.5-1.1,1-1.7,0.9c-0.9,0-2.7-1.3-3.5-2c-2.2-2.1-3.7-4.2-4.1-6.8c-0.4-2.3-1-8.7-1-8.7l-9.6,0.4l-5.3,0.1 c0,0-0.5,1.2-0.9,2.3c-0.9,2.2-1.7,4.4-2,5.7c-0.7,2.5-2.1,7.5-2.4,8.3c-0.7,1.6-1.3,2.6-2.9,2.8c-1.8,0.2-3,0.4-4.2-0.3 c-2.4-1.3-3.5-4.1-3.9-6.9c-0.7-4.9,1.3-8.8,3.3-14.6c0.8-2.4-0.3-3.3-2.3-6.4c-0.3-0.4-0.5-0.8-0.6-1.1c-0.1-0.3,0.2-1.2,0.7-1.5 c0.1-0.1,0.2-0.1,0.4-0.1L115.9,175.3 M61.1,143.8c0,0-0.1-3.1-0.4-4.8c-0.2-1.5-0.5-2.6-1.2-3.7c-0.8-1.2-1.3-2-2.5-2.2 c-1.5-0.2-2.3,0.8-3.2,2.2c-1.2,2-2.4,5.6-3.2,7.9c-1,3.3-1.5,5.3-2,9c-0.9,6.1-1.9,16.5-0.8,23.6c0.2,1.2,0.5,3,0.5,3 s1.5-1.7,2.5-2.8c0.5-0.5,2.6-3.8,2.8-4.1c0.4-0.7,1.4-2.4,1.5-2.7c0.2-0.4,1.8-3.8,2.1-4.6c0.5-1.5,1.3-3.8,1.9-5.7 c1.4-4.3,1.1-5.9,2-10.7C61.2,147.7,61.3,143.8,61.1,143.8C61.1,143.8,61.1,143.8,61.1,143.8 M50.6,189.1c0,0,0.6,1,1,1.8 c2.6,4.3,6.6,6.7,11.6,6.9c5,0.2,11.5-2.7,15.2-5.2c10.6-7.4,16.1-20.6,19.2-33.3c3.6-14.9,3.7-30.6-0.5-45 c-2.5-8.4-7.3-18.8-13.2-25.1c-1.8-1.9-4.5-4.4-5.3-5.4c-0.8-1.1-1-2,0.2-2.7c1.3-0.8,4.1,0.8,5.6,1.7c6.9,4.2,11.5,8.4,15.6,14.5 c1,1.5,5.2,8.4,6,9.8c4.7,8.8,7.1,16.5,8.3,26.2c1.6,12.4,0.6,26.4-3.7,38.8c-1.9,5.4-4.8,11.1-7.8,15.8c-0.7,1.1-5.1,7-5.6,7.6 c-1.5,1.6-5.2,4.8-7,6.2c-8.7,7-18.1,11.6-28.4,10.3c-5.7-0.7-10.3-2.6-14.9-6.3c-1.7-1.4-4.7-4.4-5.9-6.5c-0.8-1.4-1.7-3-1.8-3 c-0.1,0-0.6,0.3-1.2,0.7c-0.5,0.3-2.5,1.3-3.6,1.7c-7.1,2.6-15,2-21.5-2.2c-4.7-3.1-8.7-8.9-10.5-14.1c-2.6-7.8-2.8-15.9-1.8-24.2 c1.8-14.1,6.9-27.5,14.5-39.3c4.8-7.5,11-14.8,18.4-20.1c0.8-0.6,5.3-3.2,6.3-3.7c1.7-0.8,3.9-1.5,5.2-0.1c0.7,0.7,0.6,1.3,0.2,2.2 c-0.8,1.5-2.8,3.4-3.9,4.6c-1,1-6.4,7.7-7.5,9.3c-1.2,1.7-6.8,10-7.5,11.2c-7,12.1-12.5,31.3-12,46.1c0.1,3.1,0.6,7.5,1.3,10.4 c0.9,3.9,3.2,9.1,6.7,11.6c3.7,2.6,7,2.5,11.4,0.7c1.2-0.5,2.8-1.2,2.8-1.2s-1.3-3.3-2.1-5.7c-2.3-6.8-3.2-17.7-2.4-25.2 c0.7-6.1,2.1-10.8,4.8-15.7c2.2-3.9,5.2-7.7,8.9-10.9c3.6-3.1,9.3-5.7,14.4-5.8c4.2-0.1,8.5,1.7,10.7,5.5c3.8,6.6,4.1,17.1,3,24 c-1.6,10.4-7,20.2-14.8,26.8C56,185.1,50.6,189.1,50.6,189.1 M383.8,150.7c0.2,0,0.5,0.1,0.8,0.2c2.4,0.9,3.4,3.2,4,5.6 c1.4,5.7,2,18.4,2.2,23.3c0.2,3.7,0.3,7.4,0.4,11c0.1,3.1,0.4,7.3-0.3,10.2c-0.2,1.1-0.9,2.3-1.9,2.9c-1.2,0.7-3.8,0.8-5.2,0.5 c-3.5-0.7-4.7-3-5.2-6.5c-1.2-8.4-0.6-24.8,0.1-31.7c0.2-2.3,1.1-9.6,2.3-12.7C381.4,152.5,382.3,150.4,383.8,150.7 M274.5,163.2 c0,0-5.3,0.4-8.9,0.8c-4.6,0.5-13.2,2-18.2,3.8c-1.5,0.5-4.5,1.8-4.8,3.3c-0.3,1.6,0.7,2.8,1.8,4.1c0.6,0.7,4.2,4.2,5.2,5.1 c4.2,3.5,12.8,9,19.1,11.6c2.2,0.9,5.8,2.2,5.8,2.2s-0.3-10.2-0.2-20.3C274.4,168.5,274.5,163.2,274.5,163.2 M370.8,167.3 c0.3,2.8-0.4,8-0.5,8.6c-0.2,1.6-1.4,5.2-1.6,5.7c-1,2.2-1.9,4-2.9,5.8c-1.7,3.1-5.8,8-8.2,10.1c-9,7.8-23,12.3-35,13.7 c-8.1,1-17.5,0.8-26.1-0.8c-3-0.5-7.4-1.6-7.4-1.6s0,1.8-0.1,3c-0.1,0.6-0.5,2.1-0.7,2.5c-0.6,1.3-1.7,2-3.2,2.3 c-1.8,0.3-3.7,0.4-5.4-0.3c-2.7-1.2-3.7-3.7-4.2-6.7c-0.4-2.4-0.8-6.5-0.8-6.5s-2.1-1-3.8-1.8c-5.3-2.6-10.3-5.7-14.6-9 c-1.2-0.9-6.4-5.3-7.6-6.3c-3.2-3-6.1-6.1-8.3-10c-1.7-3-2.2-5.8-0.9-9c1.8-4.5,8.2-7.9,12.7-9.8c3.2-1.4,13.3-4.7,17.5-5.3 c2-0.3,5-0.8,5.2-1c0.1-0.1,0.1-0.1,0.2-0.2c0.1-0.1,0.3-4.6,0.2-6.2c0-1.6,1.2-12.1,1.6-14.3c0.2-1.2,1.1-5.8,2.1-7.1 c0.6-0.8,1.7-0.8,2.6-0.2c4.8,3,6.3,13.3,6.6,18.6c0.2,3.2,0.3,8,0.3,8s5.5-0.2,8.9-0.1c3.3,0.1,6.9,0.6,10.3,1.2 c4.4,0.7,12.9,2.6,17.8,5c4,2,7.8,5.5,9,9.1c1.1,3.3,1,5.7-0.8,8.7c-1.9,3.4-5.6,5.9-9.3,6.1c-1.1,0.1-5.3-0.5-6.6-1.5 c-0.5-0.4-0.5-1.1-0.1-1.6c0.1-0.2,2.1-1.2,3.2-1.8c0.6-0.3,1.1-0.7,1.5-1.1c1-0.8,1.8-1.8,1.7-2.9c-0.1-1.4-1.6-2.3-3.1-2.8 c-6.7-2.6-20-4.9-26.4-5.2c-2.5-0.1-6.1-0.3-6.1-0.3l0.8,35.6c0,0,3,0.6,5.3,0.9c1.3,0.2,7,0.7,8.5,0.8c11.5,0.3,24.3-0.7,34.9-5.7 c4.6-2.2,8.9-4.9,12.1-8.6c4.2-4.9,6.5-11.5,5.9-18.5c-0.6-7.6-6-16.6-10.2-22.1c-11.3-14.5-30.6-26.4-47.6-33.4 c-17.3-7.1-34.5-11.2-52.9-11.9c-4.7-0.2-15.1,0.1-20.3,1.5c-0.8,0.2-1.5,0.5-2.2,0.6c-0.5,0.1-1.4,0.5-1.6,0.7 c-0.1,0.1-0.3,0.2-0.3,0.2s0.3,0.2,0.6,0.3c0.6,0.2,2.9,0.4,4.1,0.6c1.1,0.2,2.2,0.8,2.6,1.6c0.4,0.7,0.5,1.3,0,2 c-1.2,1.4-5.6,1.2-7.6,0.9c-2-0.3-4.6-0.9-5.1-2.7c-0.5-2.1,0.5-4.1,1.5-6c2.2-3.8,5.2-5.8,9.8-7c6.4-1.8,14.5-3,20.6-3.2 c13.7-0.5,26.8,1.9,40.1,5.9c7.6,2.3,17.6,6.2,24.9,9.7c5.2,2.5,13.5,7.2,18.1,10.2c1.5,1,10,7.3,11.4,8.4c2.8,2.3,6.4,5.5,9,8.1 c5.1,5,11.4,12.8,14.5,18.9c0.7,1.5,1.3,2.9,2.3,4.6c0.3,0.6,1.7,4.1,2,5.1c0.2,1,0.6,2.5,0.6,2.5 C370.2,163.2,370.8,166.2,370.8,167.3z M430,169.9c0.3,0,0.3,0,0.6,0.1c4.2,0.6,8.3,1.3,11.5,2.7c2.9,1.3,4.6,2.9,6.2,5.8 c2.4,4.4,2.5,10.6,0.4,15.3c-1.6,3.5-5.1,6.4-8.4,8c-3.3,1.6-6.6,2.4-10.4,2.8c-6.6,0.7-13.8-0.6-19.7-3.5c-3.5-1.7-7.8-4.7-10-8.5 c-1.6-2.8-1.5-6.4,0.4-9.1c3.1-4.2,9.7-5.2,14.7-5c3.8,0.1,10.7,1.3,14.3,2.6c1,0.4,4.7,1.8,5.3,2.5c0.5,0.5,0.8,1.1,0.5,1.7 c-0.8,2.5-7,3.9-8.7,4.1c-4.8,0.7-7.2-1.1-12.6-3.2c-1.3-0.5-3.1-1.1-4.5-1.2c-2.4-0.2-5.4,0.5-5.9,3.1c-0.2,1.4,1.4,2.7,2.6,3.2 c2.9,1.3,5.2,1.7,8.1,1.7c8.4,0.1,17.9-1.2,24.7-6.1c0.9-0.7,1.9-1.7,1.9-2.9c0-0.2-0.2-1.5-0.7-1.6c-0.1,0-0.1,0-0.2,0 c-0.2,0-0.4-0.5-0.6-0.8c-0.5-0.6-2.5-1.5-2.9-1.6c-4.6-1.9-13.2-2.9-17.6-3.2c-4.6-0.4-11.9-1-13.7-1.3c-1.8-0.3-3.8-0.6-5.3-1.3 c-1.6-0.7-3.1-2.3-3.5-4c-0.8-3.2,0.2-7,2-9.6c4.6-6.6,15.4-9.1,23.4-10.1c7.8-1,20.4-0.9,28,3.1c1.2,0.6,1.8,1.2,1.5,2.5 c-0.5,2.4-2.3,3.9-4.4,4.6c-2.3,0.7-6.9,1-9,1.1c-9.2,0.5-20.4,0.3-29.1,2.6c-0.7,0.2-1.9,0.5-2.3,0.9c-1.4,1.5,2.5,1.9,3.4,2.1 c0.2,0,0.3,0.1,0.6,0.1L430,169.9 M458.8,204.4c-3.7-1.4-4.6-7.4-4.7-10.4c-0.6-9.9,2-23.7,5.3-32.9c0.9-2.7,2.3-7,5.3-6.7 c2,0.2,3.5,1.7,4.6,3.4c2.9,4.1,6.8,9.7,9.3,13.6c2.9,4.4,5.6,8.7,8.3,12.7c0.3,0.5,0.6,0.9,1,1.2c0.5,0.4,0.9,0.4,1.1,0.1 c0.1-0.2-0.1-5.1-0.2-6.2c-0.2-1.6-0.3-2.9-0.5-4.3c-0.5-4-1.8-9.6-2.8-13.4c-1.1-4.3-2.5-8.7-3.5-12.8c-0.3-1.3-0.6-2.7-0.6-4 c0-1.8,1.2-2.9,3.1-2.2c3.8,1.3,8.8,9.5,10.3,12.4c0.5,1,2.5,5.9,2.9,7.2c1.6,4.7,2.5,9.2,2.9,14.3c0.4,5,0.1,12.3-2,17.2 c-0.8,1.8-2.4,4.2-3.7,5.5c-2.1,1.9-6.2,3.4-9.1,1.8c-3.1-1.8-8.2-10.6-9.1-12.2c-3-5.2-8.1-15.3-8.9-16.5c-0.2-0.3-0.4-0.5-0.8-0.6 c-0.3-0.1-0.4,0.5-0.5,0.9c-0.5,2.9-0.9,16.8-0.9,17.1c-0.1,2.3-0.2,8-0.9,10.8c-0.4,1.8-0.9,3.3-2.6,4.1 C461.1,205.2,460.2,204.9,458.8,204.4 M510.1,203.5c-0.4-0.3-1.1-1-1.5-1.5c-0.1-0.1-1.4-2.1-1.7-2.7c-0.2-0.5-0.4-0.9-0.6-1.4 c-1.2-3.2-1.2-6.3-0.5-9.6c0.6-3.2,1.2-3.3,2.8-7.6c0.1-0.2,0.2-0.4,0.2-0.7c0.1-0.6-0.9-4.6-0.9-5.9c-0.1-2,1.4-3.3,4-3.6 c0.2,0,0.4,0,0.6-0.1c1-0.3,1.7-2.2,2.2-3.8c0.8-2.2,2-5.5,2-5.5s-3.2-0.7-4.9-1.4c-1.9-0.7-3.4-1.7-4.2-3.4c-1-2.1-0.3-3.2,1.8-3.9 c0.8-0.2,7-1.4,9-1.7c2.5-0.4,4.8-0.7,7.1-1c2-0.3,11.4-1.3,14.3-1.2c4.5,0.1,7.5,2,10.1,5.8c1.4,2.1,2.4,4.5,0.2,5.8 c-3.3,2-14,2.1-15.9,2.2c-3.1,0-7.4,0-7.4,0l-2.2,7.3c0,0,7.7-0.1,12-0.1c1,0,2.1,0,2.7,0.2c2.2,0.5,3,2.2,3.1,4.6 c0.1,2.8-0.4,4.2-2.7,4.5c-1.2,0.2-14.3,0.3-16.1,0.5c-1.1,0.1-2.3,0.3-2.3,0.3s-0.9,2.5-1.8,5c-0.8,2.6-1.6,5.3-1.6,5.3 s0.7,0,1.2,0c0.9,0,1.9-0.1,2.6-0.3c4-0.7,10-1.6,14.9-2.4c2.6-0.4,4-0.6,5.3,1.1c1.2,1.5,1.8,2.8,1.9,4.7c0.1,1.8-1.3,2.9-2.9,4.2 c-5.2,4-14,8.3-20.6,9c-3,0.3-3.8,0-6.4-0.7c-0.5-0.1-2.4-1-2.3-1.1C511.4,204.4,510.4,203.8,510.1,203.5z M593.3,167 c-3.4,2.8-7.8,8.6-9.9,11.6c-2.8,4-5.4,8.6-7.9,12.1c-0.6,0.8-2.2,3.6-2.1,3.7c0.1,0.2,1.7,0.1,3.4-0.1c3.6-0.6,8.4-3.1,11-5.2 c4-3.2,6.7-7.5,8-12.6c0.6-2.3,0.9-7.2-0.8-9.3C594.7,166.7,593.9,166.4,593.3,167 M566.3,208.5c0,0-1.1,3.2-1.9,5.6 c-1.4,4.3-4.3,15.8-5.1,19.3c-1,5.3-4,19.2-4.2,19.5c-0.2,0.4-0.3,0.5-0.8,0.8c-1.2,0.7-1.7,0.5-3.2-0.3c-1.9-1-3.6-2.1-5.1-3.9 c-2.9-3.8-2.2-10.8-1.6-15c2-14.5,4-20.9,9.5-35.4c0.1-0.2,0.1-0.3,0-0.5c-1.7-3.7-2.7-8.1-2.7-11.7c0-11.3,6.5-22.6,13.8-31.6 c0.6-0.7,4.1-5,5.8-4.9c1.6,0.1,1.9,2,1.7,3.6c-0.8,5.2-4.5,10.6-7,15c-2.8,4.9-3.4,7-4.8,11.5c-0.2,0.7-0.8,4-0.8,4.4 c0.1,1.2,0.3,2.7,0.3,2.7s4.6-6.4,7.6-10.4c1.7-2.2,2.9-3.6,4.2-5.2c1.4-1.6,6.8-7.2,8.4-8.7c3.3-3.1,4.7-4.4,8.3-6.2 c2.8-1.5,5.3-1.8,8,0c4.3,2.8,6.2,8.9,6.7,13.7c0.6,5.8-0.6,12.4-3.2,17.4c-3.1,5.9-7.2,10.2-12.9,14c-5.8,3.8-12.6,6.5-19.2,6.3 C567.4,208.6,566.3,208.5,566.3,208.5"></path></svg>
